<svg viewBox="0 0 63 53" fill="" xmlns="http://www.w3.org/2000/svg">
<path d="M53.8412 52.506C49.5528 52.506 45.1953 49.5318 45.1953 43.8601C45.1953 40.3326 47.0974 37.4276 50.0024 36.0443L41.5987 4.40056C36.9645 4.33139 33.0566 4.43514 29.4253 4.71181L29.1487 1.25348C33.2295 0.942227 37.587 0.838476 42.9474 0.942226L44.2616 0.976811L53.3224 35.2143C58.3716 34.9722 62.4524 38.7418 62.4524 43.8601C62.487 48.8056 58.752 52.506 53.8412 52.506ZM53.8412 38.6726C50.8324 38.6726 48.6537 40.8514 48.6537 43.8601C48.6537 47.6989 51.4549 49.0476 53.8412 49.0476C56.8499 49.0476 59.0287 46.8689 59.0287 43.8601C59.0287 40.8514 56.8499 38.6726 53.8412 38.6726ZM9.1595 52.506C4.87117 52.506 0.513672 49.5318 0.513672 43.8601C0.513672 38.9147 4.21409 35.2143 9.1595 35.2143C13.4824 35.2143 16.8716 38.0847 17.6324 42.131H27.5924C31.5695 42.131 33.437 41.3701 36.3074 38.6726C38.7628 36.321 41.1145 33.831 43.2933 31.2372L45.9562 33.4506C43.7083 36.1481 41.2528 38.7418 38.6937 41.1626C35.1662 44.5172 32.4687 45.5893 27.5924 45.5893H17.667C16.9062 49.6356 13.517 52.506 9.1595 52.506ZM9.1595 38.6726C6.15076 38.6726 3.97201 40.8514 3.97201 43.8601C3.97201 47.6989 6.77326 49.0476 9.1595 49.0476C12.1683 49.0476 14.347 46.8689 14.347 43.8601C14.347 40.8514 12.1683 38.6726 9.1595 38.6726ZM52.9074 9.03473H50.6595C49.4145 9.03473 48.377 8.03181 48.377 6.75223C48.377 5.50723 49.3799 4.50431 50.6595 4.50431H52.9074V9.03473Z" fill=""/>
</svg>
