<svg viewBox="0 0 50 54" fill="" xmlns="http://www.w3.org/2000/svg"><path d="M24.329 53.8812C11.5912 54.8642 1.99994 46.6472 1.01695 33.9094C0.0339556 21.1716 8.25093 11.5803 20.9888 10.5973C26.0592 10.206 30.7422 11.2442 34.5933 13.5906C40.2734 17.071 43.7234 23.0872 44.3008 30.5691C45.2838 43.307 37.0668 52.8982 24.329 53.8812ZM19.6863 13.8702C9.50282 15.3092 3.29267 23.0972 4.10865 33.6708C4.96519 44.77 12.9912 51.646 24.0904 50.7895C35.1896 49.933 42.0656 41.907 41.2091 30.8077C40.7105 24.3461 37.791 19.1598 32.9624 16.2357C30.0581 14.4693 26.5689 13.5878 22.778 13.6316L24.46 35.4281L10.3309 36.5185L10.0756 33.2103L21.113 32.3586L19.6863 13.8702ZM45.1064 18.4397L43.3245 15.9025L47.4263 13.0357L49.2083 15.5729L45.1064 18.4397ZM38.4478 11.1472L35.8598 9.44971L40.8738 1.87841L43.4618 3.57587L38.4478 11.1472ZM28.1512 6.68567L25.0522 6.4272C25.102 5.86354 24.9069 5.34988 24.4359 4.88861C22.7492 3.1838 18.0498 3.54645 16.6448 5.48985C16.281 6.01554 16.167 6.55306 16.3003 7.0715L13.2777 7.80237C12.9182 6.36836 13.2389 4.88185 14.14 3.66157C15.3763 1.94891 17.652 0.80915 20.1872 0.613507C22.7533 0.415477 25.146 1.19496 26.6305 2.69767C27.7414 3.79379 28.2864 5.21348 28.1512 6.68567Z" fill=""/></svg>