<svg xmlns="http://www.w3.org/2000/svg" xmlns:xlink="http://www.w3.org/1999/xlink"><symbol id="advantages-charger" viewBox="0 0 53 32"><g fill="none">
<path d="M1.80161 12.8173C1.4292 8.56063 4.57801 4.80803 8.83467 4.43562L39.1787 1.78086C43.4353 1.40845 47.188 4.55726 47.5604 8.81392L48.4199 18.6383C48.7923 22.895 45.6435 26.6476 41.3868 27.02L11.0428 29.6747C6.78615 30.0471 3.03354 26.8983 2.66113 22.6417L1.80161 12.8173Z" stroke="#21201F" stroke-width="3.50169"/>
</g></symbol><symbol id="advantages-ruble" viewBox="0 0 56 39"><g fill="">
<path d="M11.4003 37.5716C9.7103 37.4554 8.16023 36.9992 6.75007 36.2031C5.37532 35.3761 4.20903 34.1806 3.25119 32.6165C2.32877 31.0216 1.64794 29.0604 1.2087 26.733C0.771746 24.3724 0.662638 21.6016 0.881382 18.4204C1.10013 15.2393 1.58634 12.5261 2.34002 10.2806C3.09598 8.00209 4.03885 6.15255 5.16862 4.73204C6.33153 3.31381 7.64935 2.30574 9.12208 1.70785C10.6279 1.11224 12.2259 0.87254 13.9158 0.988747C15.6058 1.10496 17.1393 1.55998 18.5163 2.35383C19.8933 3.14768 21.0442 4.3255 21.9689 5.88728C22.8959 7.41593 23.5624 9.34284 23.9685 11.668C24.4078 13.9955 24.518 16.7497 24.2993 19.9309C24.0805 23.112 23.5932 25.8418 22.8372 28.1204C22.1167 30.3681 21.1904 32.2187 20.0583 33.6724C18.9263 35.126 17.6227 36.1684 16.1477 36.7994C14.6727 37.4304 13.0902 37.6878 11.4003 37.5716ZM11.6206 33.6415C12.7472 33.719 13.7584 33.5388 14.6541 33.101C15.5499 32.6632 16.3347 31.9015 17.0086 30.8158C17.6826 29.7302 18.2313 28.2864 18.6549 26.4844C19.1138 24.6515 19.4345 22.4096 19.6167 19.7587C19.799 17.1078 19.8037 14.8608 19.6308 13.0178C19.4602 11.1416 19.1154 9.61968 18.5964 8.45202C18.0774 7.28436 17.4042 6.42238 16.5768 5.86609C15.7495 5.3098 14.7725 4.99291 13.6458 4.91544C12.5192 4.83797 11.4914 5.017 10.5625 5.45252C9.66681 5.89033 8.86541 6.65091 8.15834 7.73427C7.48441 8.8199 6.91796 10.2791 6.45899 12.112C6.03544 13.914 5.73252 16.1405 5.55023 18.7914C5.36795 21.4424 5.36212 23.7059 5.53275 25.5821C5.73879 27.4274 6.10131 28.9339 6.6203 30.1015C7.13928 31.2692 7.81247 32.1311 8.63984 32.6874C9.50035 33.246 10.4939 33.564 11.6206 33.6415Z" fill=""/>
<path d="M35.3102 18.99L36.4107 2.98503L44.8109 3.56265C48.5222 3.81785 51.3493 4.82794 53.2921 6.5929C55.268 8.36015 56.1432 10.884 55.9177 14.1646C55.8014 15.8545 55.403 17.292 54.7222 18.4771C54.0746 19.6644 53.1766 20.6181 52.0285 21.3382C50.9157 22.0274 49.6 22.5196 48.0815 22.8147C46.5653 23.0767 44.896 23.145 43.0734 23.0197L39.7432 22.7907L39.4527 27.0156L49.841 27.7299L49.6018 31.2093L39.2134 30.4949L38.6324 38.9448L33.9601 38.6235L34.5412 30.1737L30.4654 29.8934L30.7046 26.414L34.7804 26.6943L35.0709 22.4694L30.9951 22.1891L31.2344 18.7098L35.3102 18.99ZM40.8062 7.33241L39.9825 19.3113L43.3127 19.5403C45.7317 19.7067 47.6049 19.3361 48.9325 18.4285C50.2954 17.4902 51.0498 15.9606 51.1957 13.8399C51.3301 11.8848 50.8659 10.4046 49.8031 9.39933C48.7756 8.36317 47.0193 7.75965 44.534 7.58875L40.8062 7.33241Z" fill=""/>
</g></symbol><symbol id="advantages-scooter" viewBox="0 0 63 53"><g fill="">
<path d="M53.8412 52.506C49.5528 52.506 45.1953 49.5318 45.1953 43.8601C45.1953 40.3326 47.0974 37.4276 50.0024 36.0443L41.5987 4.40056C36.9645 4.33139 33.0566 4.43514 29.4253 4.71181L29.1487 1.25348C33.2295 0.942227 37.587 0.838476 42.9474 0.942226L44.2616 0.976811L53.3224 35.2143C58.3716 34.9722 62.4524 38.7418 62.4524 43.8601C62.487 48.8056 58.752 52.506 53.8412 52.506ZM53.8412 38.6726C50.8324 38.6726 48.6537 40.8514 48.6537 43.8601C48.6537 47.6989 51.4549 49.0476 53.8412 49.0476C56.8499 49.0476 59.0287 46.8689 59.0287 43.8601C59.0287 40.8514 56.8499 38.6726 53.8412 38.6726ZM9.1595 52.506C4.87117 52.506 0.513672 49.5318 0.513672 43.8601C0.513672 38.9147 4.21409 35.2143 9.1595 35.2143C13.4824 35.2143 16.8716 38.0847 17.6324 42.131H27.5924C31.5695 42.131 33.437 41.3701 36.3074 38.6726C38.7628 36.321 41.1145 33.831 43.2933 31.2372L45.9562 33.4506C43.7083 36.1481 41.2528 38.7418 38.6937 41.1626C35.1662 44.5172 32.4687 45.5893 27.5924 45.5893H17.667C16.9062 49.6356 13.517 52.506 9.1595 52.506ZM9.1595 38.6726C6.15076 38.6726 3.97201 40.8514 3.97201 43.8601C3.97201 47.6989 6.77326 49.0476 9.1595 49.0476C12.1683 49.0476 14.347 46.8689 14.347 43.8601C14.347 40.8514 12.1683 38.6726 9.1595 38.6726ZM52.9074 9.03473H50.6595C49.4145 9.03473 48.377 8.03181 48.377 6.75223C48.377 5.50723 49.3799 4.50431 50.6595 4.50431H52.9074V9.03473Z" fill=""/>
</g></symbol><symbol id="advantages-watch" viewBox="0 0 50 54"><g fill="">
<path d="M24.329 53.8812C11.5912 54.8642 1.99994 46.6472 1.01695 33.9094C0.0339556 21.1716 8.25093 11.5803 20.9888 10.5973C26.0592 10.206 30.7422 11.2442 34.5933 13.5906C40.2734 17.071 43.7234 23.0872 44.3008 30.5691C45.2838 43.307 37.0668 52.8982 24.329 53.8812ZM19.6863 13.8702C9.50282 15.3092 3.29267 23.0972 4.10865 33.6708C4.96519 44.77 12.9912 51.646 24.0904 50.7895C35.1896 49.933 42.0656 41.907 41.2091 30.8077C40.7105 24.3461 37.791 19.1598 32.9624 16.2357C30.0581 14.4693 26.5689 13.5878 22.778 13.6316L24.46 35.4281L10.3309 36.5185L10.0756 33.2103L21.113 32.3586L19.6863 13.8702ZM45.1064 18.4397L43.3245 15.9025L47.4263 13.0357L49.2083 15.5729L45.1064 18.4397ZM38.4478 11.1472L35.8598 9.44971L40.8738 1.87841L43.4618 3.57587L38.4478 11.1472ZM28.1512 6.68567L25.0522 6.4272C25.102 5.86354 24.9069 5.34988 24.4359 4.88861C22.7492 3.1838 18.0498 3.54645 16.6448 5.48985C16.281 6.01554 16.167 6.55306 16.3003 7.0715L13.2777 7.80237C12.9182 6.36836 13.2389 4.88185 14.14 3.66157C15.3763 1.94891 17.652 0.80915 20.1872 0.613507C22.7533 0.415477 25.146 1.19496 26.6305 2.69767C27.7414 3.79379 28.2864 5.21348 28.1512 6.68567Z" fill=""/>
</g></symbol><symbol id="logo" viewBox="0 0 176 51"><g fill="">
<path d="M139.016 0H158.478C163.125 0.000484188 167.581 1.84613 170.867 5.13103C174.153 8.41593 176 12.8711 176 17.5166V32.6138C176 34.914 175.547 37.1917 174.666 39.3168C173.786 41.442 172.495 43.3729 170.868 44.9993C169.241 46.6257 167.309 47.9158 165.183 48.7959C163.057 49.676 160.779 50.1288 158.478 50.1286H139.216C136.915 50.1288 134.637 49.676 132.511 48.7959C130.385 47.9158 128.454 46.6257 126.826 44.9993C125.199 43.3729 123.909 41.442 123.028 39.3168C122.147 37.1917 121.694 34.914 121.694 32.6138V17.5166C121.694 7.84075 129.336 0 139.016 0Z" fill=""/>
<path d="M143.778 28.3427V27.4918H138.652V23.7047H148.646V28.2094C148.646 35.2997 145.259 39.4191 138.853 39.4191C132.247 39.4191 128.41 34.215 128.41 25.0395C128.41 16.0922 132.597 10.6143 140.279 10.6143C143.181 10.6143 145.684 11.383 147.052 12.3836V16.2821C145.087 15.0648 142.824 14.4121 140.513 14.3959C135.475 14.3959 133.339 17.8159 133.339 25.0395C133.339 32.0458 135.108 35.6302 138.944 35.6302C142.609 35.6484 143.778 32.8127 143.778 28.3427Z" fill="white"/>
<path d="M169.371 28.8759C169.371 35.6831 165.701 39.4355 160.423 39.4355C155.146 39.4355 151.476 35.6831 151.476 28.927C151.476 22.1197 155.146 18.3674 160.423 18.3674C165.701 18.3674 169.371 22.1033 169.371 28.8759ZM164.415 28.8759C164.415 24.205 163.08 22.1544 160.429 22.1544C157.778 22.1544 156.441 24.205 156.441 28.927C156.441 33.5979 157.776 35.6503 160.429 35.6503C163.082 35.6503 164.415 33.5814 164.415 28.8759Z" fill="white"/>
<path d="M13.746 14.8149H11.5548C7.57416 14.8149 5.47794 16.8326 5.47794 19.8181C5.47794 23.2053 6.92776 24.7738 9.91507 26.7915L12.3674 28.444L5.27708 39.0347H0L6.35623 29.5597C2.68602 26.9412 0.633615 24.4068 0.633615 20.0865C0.633615 14.6816 4.38235 11.0278 11.5037 11.0278H18.5921V39.0365H13.7295V14.8149H13.746ZM38.6359 18.7682V39.0365H33.8482V30.5786H27.4408V39.0365H22.6531V18.7682H27.4408V26.7915H33.8482V18.7682H38.6359ZM60.2719 43.6581H55.8348V39.0201H45.0743V43.6581H40.6372V35.2421H42.1381C43.8235 31.8549 44.1576 25.4494 44.1576 20.4955V18.7609H58.1355V35.2421H60.2719V43.6581ZM53.3478 22.5552H48.2771V23.156C48.2771 26.6582 47.9119 32.18 46.5752 35.2494H53.3478V22.5552ZM71.0306 39.42C64.9099 39.42 61.4387 35.9999 61.4387 28.9443C61.4387 22.8218 64.2252 18.3537 70.0646 18.3537C74.8523 18.3537 77.9547 21.0214 77.9547 28.0624V30.5968H66.3944C66.5934 33.984 67.9282 35.6347 71.4323 35.6347C73.7677 35.6347 76.2693 34.7509 77.7538 33.7339V37.6524C76.3533 38.6202 74.1001 39.42 71.0306 39.42ZM66.3944 27.0581H73.083V26.66C73.083 24.1256 72.3526 22.1572 69.9788 22.1572C67.6945 22.1371 66.5277 23.8389 66.3944 27.0581ZM85.978 29.0776V39.0365H81.1739V18.7682H85.978V28.1099L92.7597 18.7682H97.5986L90.826 28.1099L98.5152 39.0201H93.0683L85.978 29.0776ZM98.2395 28.9115C98.2395 22.7378 101.426 18.3518 107.552 18.3518C109.926 18.3518 111.706 18.7517 112.707 19.3178V23.3897C111.739 22.789 109.92 22.1371 108.069 22.1371C104.932 22.1371 103.197 24.3903 103.197 28.7946C103.197 32.9816 104.616 35.6493 108.036 35.6493C110.054 35.6493 111.505 35.1326 112.707 34.2817V38.1856C111.538 39.0365 109.968 39.4364 107.751 39.4364C101.342 39.42 98.2377 35.684 98.2377 28.9115H98.2395Z" fill=""/>
</g></symbol></svg>