<svg viewBox="0 0 56 39" fill="" xmlns="http://www.w3.org/2000/svg">
<path d="M11.4003 37.5716C9.7103 37.4554 8.16023 36.9992 6.75007 36.2031C5.37532 35.3761 4.20903 34.1806 3.25119 32.6165C2.32877 31.0216 1.64794 29.0604 1.2087 26.733C0.771746 24.3724 0.662638 21.6016 0.881382 18.4204C1.10013 15.2393 1.58634 12.5261 2.34002 10.2806C3.09598 8.00209 4.03885 6.15255 5.16862 4.73204C6.33153 3.31381 7.64935 2.30574 9.12208 1.70785C10.6279 1.11224 12.2259 0.87254 13.9158 0.988747C15.6058 1.10496 17.1393 1.55998 18.5163 2.35383C19.8933 3.14768 21.0442 4.3255 21.9689 5.88728C22.8959 7.41593 23.5624 9.34284 23.9685 11.668C24.4078 13.9955 24.518 16.7497 24.2993 19.9309C24.0805 23.112 23.5932 25.8418 22.8372 28.1204C22.1167 30.3681 21.1904 32.2187 20.0583 33.6724C18.9263 35.126 17.6227 36.1684 16.1477 36.7994C14.6727 37.4304 13.0902 37.6878 11.4003 37.5716ZM11.6206 33.6415C12.7472 33.719 13.7584 33.5388 14.6541 33.101C15.5499 32.6632 16.3347 31.9015 17.0086 30.8158C17.6826 29.7302 18.2313 28.2864 18.6549 26.4844C19.1138 24.6515 19.4345 22.4096 19.6167 19.7587C19.799 17.1078 19.8037 14.8608 19.6308 13.0178C19.4602 11.1416 19.1154 9.61968 18.5964 8.45202C18.0774 7.28436 17.4042 6.42238 16.5768 5.86609C15.7495 5.3098 14.7725 4.99291 13.6458 4.91544C12.5192 4.83797 11.4914 5.017 10.5625 5.45252C9.66681 5.89033 8.86541 6.65091 8.15834 7.73427C7.48441 8.8199 6.91796 10.2791 6.45899 12.112C6.03544 13.914 5.73252 16.1405 5.55023 18.7914C5.36795 21.4424 5.36212 23.7059 5.53275 25.5821C5.73879 27.4274 6.10131 28.9339 6.6203 30.1015C7.13928 31.2692 7.81247 32.1311 8.63984 32.6874C9.50035 33.246 10.4939 33.564 11.6206 33.6415Z" fill=""/>
<path d="M35.3102 18.99L36.4107 2.98503L44.8109 3.56265C48.5222 3.81785 51.3493 4.82794 53.2921 6.5929C55.268 8.36015 56.1432 10.884 55.9177 14.1646C55.8014 15.8545 55.403 17.292 54.7222 18.4771C54.0746 19.6644 53.1766 20.6181 52.0285 21.3382C50.9157 22.0274 49.6 22.5196 48.0815 22.8147C46.5653 23.0767 44.896 23.145 43.0734 23.0197L39.7432 22.7907L39.4527 27.0156L49.841 27.7299L49.6018 31.2093L39.2134 30.4949L38.6324 38.9448L33.9601 38.6235L34.5412 30.1737L30.4654 29.8934L30.7046 26.414L34.7804 26.6943L35.0709 22.4694L30.9951 22.1891L31.2344 18.7098L35.3102 18.99ZM40.8062 7.33241L39.9825 19.3113L43.3127 19.5403C45.7317 19.7067 47.6049 19.3361 48.9325 18.4285C50.2954 17.4902 51.0498 15.9606 51.1957 13.8399C51.3301 11.8848 50.8659 10.4046 49.8031 9.39933C48.7756 8.36317 47.0193 7.75965 44.534 7.58875L40.8062 7.33241Z" fill=""/>
</svg>
