<svg width="27" height="20" viewBox="0 0 27 20" fill="none" xmlns="http://www.w3.org/2000/svg">
<path d="M11.1241 16.4158L0.691895 5.53254L2.41791 3.74031L12.8755 14.6236L11.1241 16.4158ZM2.41791 16.4158L0.691895 14.6236L11.1749 3.74031L12.8755 5.53254L2.41791 16.4158Z" fill="#21201F"/>
<path d="M17.8656 10.5975V7.79231H20.2008C20.7761 7.79231 21.2753 7.69707 21.6984 7.50659C22.1214 7.2988 22.4514 7.00442 22.6883 6.62346C22.9252 6.22519 23.0436 5.74899 23.0436 5.19487C23.0436 4.67538 22.9252 4.23382 22.6883 3.87018C22.4683 3.50654 22.1383 3.22948 21.6984 3.039C21.2584 2.8312 20.7169 2.72731 20.0739 2.72731C19.2786 2.72731 18.5171 2.87449 17.7895 3.16887C17.0787 3.44593 16.3173 3.90481 15.505 4.54551V1.53249C15.9788 1.18616 16.4696 0.900444 16.9772 0.675333C17.4849 0.450221 18.0348 0.285717 18.6271 0.18182C19.2193 0.0606066 19.8539 0 20.5308 0C21.7153 0 22.7391 0.207795 23.6021 0.623385C24.4651 1.03897 25.1335 1.61907 25.6073 2.36367C26.0811 3.10827 26.318 3.96542 26.318 4.93513C26.318 5.55851 26.208 6.12129 25.988 6.62346C25.768 7.12563 25.4804 7.54988 25.125 7.89621C24.7697 8.24253 24.3635 8.51959 23.9067 8.72739C23.4498 8.93518 22.9844 9.06505 22.5106 9.117V9.0131C23.086 9.06505 23.6359 9.20358 24.1605 9.42869C24.702 9.63649 25.1842 9.93086 25.6073 10.3118C26.0303 10.6928 26.3603 11.1517 26.5972 11.6885C26.851 12.2253 26.9779 12.84 26.9779 13.5326C26.9779 14.6582 26.6987 15.6452 26.1403 16.4937C25.5819 17.3249 24.8035 17.9743 23.8051 18.4418C22.8067 18.892 21.6391 19.1171 20.3023 19.1171C19.6255 19.1171 18.974 19.0565 18.3479 18.9353C17.7218 18.8314 17.138 18.6669 16.5965 18.4418C16.055 18.1994 15.5558 17.9137 15.0989 17.5846V14.5716C15.8942 15.195 16.6895 15.6539 17.4849 15.9483C18.2802 16.2426 19.1347 16.3898 20.0485 16.3898C20.8269 16.3898 21.4784 16.2686 22.003 16.0262C22.5275 15.7838 22.9167 15.4461 23.1706 15.0132C23.4413 14.563 23.5767 14.0262 23.5767 13.4028C23.5767 12.7794 23.4498 12.2599 23.1959 11.8443C22.9421 11.4287 22.5614 11.117 22.0537 10.9092C21.5461 10.7014 20.8946 10.5975 20.0993 10.5975H17.8656Z" fill="#21201F"/>
</svg>
